<?xml version="1.0" encoding="utf-8"?>
<svg viewBox="0 0 440 490" xmlns="http://www.w3.org/2000/svg">
  <defs>
    <filter id="drop-shadow-filter-blue" color-interpolation-filters="sRGB" x="-50%" y="-50%" width="200%" height="200%">
      <feGaussianBlur in="SourceAlpha" stdDeviation="5"/>
      <feOffset dx="0" dy="0"/>
      <feComponentTransfer result="offsetblur">
        <feFuncA id="spread-ctrl" type="linear" slope="1"/>
      </feComponentTransfer>
      <feFlood flood-color="#69d3fb"/>
      <feComposite in2="offsetblur" operator="in"/>
      <feMerge>
        <feMergeNode/>
        <feMergeNode in="SourceGraphic"/>
      </feMerge>
    </filter>
    <filter id="drop-shadow-filter-orange" color-interpolation-filters="sRGB" x="-50%" y="-50%" width="200%" height="200%">
      <feGaussianBlur in="SourceAlpha" stdDeviation="5"/>
      <feOffset dx="0" dy="0"/>
      <feComponentTransfer result="offsetblur">
        <feFuncA id="spread-ctrl" type="linear" slope="1"/>
      </feComponentTransfer>
      <feFlood flood-color="#ffff00"/>
      <feComposite in2="offsetblur" operator="in"/>
      <feMerge>
        <feMergeNode/>
        <feMergeNode in="SourceGraphic"/>
      </feMerge>
    </filter>
  </defs>
  <path d="M 217.815 252.619 C 216.671 252.62 215.551 252.326 214.553 251.763 L 168.181 225.551 C 166.101 224.375 164.817 222.172 164.815 219.786 L 164.815 167.523 C 164.817 165.133 166.101 162.93 168.181 161.754 L 214.553 135.542 C 216.578 134.406 219.051 134.406 221.076 135.542 L 267.449 161.754 C 269.528 162.93 270.813 165.133 270.815 167.523 L 270.815 219.786 C 270.813 222.172 269.528 224.375 267.449 225.551 L 221.076 251.763 C 220.078 252.326 218.958 252.62 217.815 252.619 Z M 217.815 139.105 C 217.433 139.104 217.06 139.202 216.729 139.387 L 170.351 165.601 C 169.661 165.991 169.233 166.725 169.233 167.523 L 169.233 219.786 C 169.233 220.58 169.661 221.314 170.353 221.708 L 216.729 247.919 C 217.402 248.3 218.227 248.3 218.901 247.919 L 265.278 221.708 C 265.968 221.314 266.396 220.58 266.397 219.786 L 266.397 167.523 C 266.396 166.725 265.968 165.991 265.278 165.601 L 218.901 139.387 C 218.569 139.202 218.197 139.104 217.815 139.105 Z" style="fill: rgb(102, 156, 210);filter: url(&quot;#drop-shadow-filter-blue&quot;);"/>
  <g transform="matrix(-0.000064035691, -0.999998966012, 1.252299249, -0.000080044614, 247.60212761604, 33.425811730426)" style="transform-origin: 107.838px 381.009px;"/>
  <path d="M 223.217 299.286 C 225.052 299.285 226.967 300.702 226.967 304.455 L 226.967 316.787 C 226.967 318.678 228.69 319.426 229.44 319.676 L 237.969 322.787 C 241.594 324.162 243.844 328.037 242.844 332.037 L 238.844 345.036 C 238.594 346.036 237.719 346.786 236.594 346.786 L 216.469 346.786 C 215.469 346.786 214.594 346.286 214.219 345.411 C 209.383 334.186 206.703 327.961 206.175 326.738 C 205.648 325.515 205.997 324.531 207.219 323.787 C 209.469 322.162 212.844 323.836 214.219 326.211 L 216.238 328.966 C 217.033 330.475 219.469 330.475 219.469 328.225 L 219.469 304.455 C 219.469 300.702 221.382 299.287 223.217 299.286 Z M 240.719 286.787 C 243.469 286.787 245.719 289.037 245.719 291.787 L 245.719 310.537 C 245.719 312.89 243.445 315.541 240.719 315.537 L 233.232 315.537 C 231.969 315.537 231.969 314.522 231.969 314.361 L 231.969 303.662 C 231.969 298.855 229.492 294.287 223.219 294.287 C 216.945 294.287 214.469 298.272 214.469 303.662 L 214.469 314.361 C 214.469 314.796 214.138 315.537 213.203 315.537 L 190.719 315.537 C 187.969 315.537 185.719 313.287 185.719 310.537 L 185.719 291.787 C 185.719 289.037 187.969 286.787 190.719 286.787 L 240.719 286.787 Z" style="fill: rgb(250, 140, 0);"/>
  <path d="M 217.124 419.549 C 215.055 419.552 213.021 419.02 211.219 418.005 L 127.219 370.527 C 123.455 368.395 121.128 364.405 121.124 360.08 L 121.124 265.415 C 121.128 261.09 123.455 257.1 127.219 254.969 L 211.219 207.49 C 214.886 205.432 219.361 205.432 223.028 207.49 L 307.028 254.969 C 310.792 257.1 313.12 261.09 313.124 265.415 L 313.124 360.08 C 313.12 364.405 310.792 368.395 307.028 370.527 L 223.028 418.005 C 221.226 419.02 219.192 419.552 217.124 419.549 Z M 217.124 213.94 C 216.434 213.939 215.756 214.116 215.155 214.455 L 131.155 261.933 C 129.901 262.644 129.125 263.973 129.124 265.415 L 129.124 360.08 C 129.125 361.522 129.901 362.852 131.156 363.562 L 215.155 411.041 C 216.378 411.727 217.869 411.727 219.092 411.041 L 303.092 363.562 C 304.346 362.852 305.122 361.522 305.124 360.08 L 305.124 265.415 C 305.122 263.973 304.346 262.644 303.092 261.933 L 219.092 214.455 C 218.491 214.116 217.813 213.939 217.124 213.94 Z" style="fill: rgb(255, 215, 0);filter: url(&quot;#drop-shadow-filter-orange&quot;);"/>
  <path d="M 321.883 241.428 C 319.814 241.431 317.78 240.899 315.978 239.884 L 231.978 192.406 C 228.214 190.274 225.887 186.284 225.883 181.959 L 225.883 87.294 C 225.887 82.969 228.214 78.979 231.978 76.848 L 315.978 29.369 C 319.645 27.311 324.12 27.311 327.787 29.369 L 411.787 76.848 C 415.551 78.979 417.879 82.969 417.883 87.294 L 417.883 181.959 C 417.879 186.284 415.551 190.274 411.787 192.406 L 327.787 239.884 C 325.985 240.899 323.951 241.431 321.883 241.428 Z M 321.883 35.819 C 321.193 35.818 320.515 35.995 319.914 36.334 L 235.914 83.812 C 234.66 84.523 233.884 85.852 233.883 87.294 L 233.883 181.959 C 233.884 183.401 234.66 184.731 235.915 185.441 L 319.914 232.92 C 321.137 233.606 322.628 233.606 323.851 232.92 L 407.851 185.441 C 409.105 184.731 409.881 183.401 409.883 181.959 L 409.883 87.294 C 409.881 85.852 409.105 84.523 407.851 83.812 L 323.851 36.334 C 323.25 35.995 322.572 35.818 321.883 35.819 Z" style="fill: rgb(102, 156, 210);filter: url(&quot;#drop-shadow-filter-blue&quot;);"/>
  <path d="M 113.363 242.157 C 111.294 242.16 109.26 241.628 107.458 240.613 L 23.458 193.135 C 19.694 191.003 17.367 187.013 17.363 182.688 L 17.363 88.023 C 17.367 83.698 19.694 79.708 23.458 77.577 L 107.458 30.098 C 111.125 28.04 115.6 28.04 119.267 30.098 L 203.267 77.577 C 207.031 79.708 209.359 83.698 209.363 88.023 L 209.363 182.688 C 209.359 187.013 207.031 191.003 203.267 193.135 L 119.267 240.613 C 117.465 241.628 115.431 242.16 113.363 242.157 Z M 113.363 36.548 C 112.673 36.547 111.995 36.724 111.394 37.063 L 27.394 84.541 C 26.14 85.252 25.364 86.581 25.363 88.023 L 25.363 182.688 C 25.364 184.13 26.14 185.46 27.395 186.17 L 111.394 233.649 C 112.617 234.335 114.108 234.335 115.331 233.649 L 199.331 186.17 C 200.585 185.46 201.361 184.13 201.363 182.688 L 201.363 88.023 C 201.361 86.581 200.585 85.252 199.331 84.541 L 115.331 37.063 C 114.73 36.724 114.052 36.547 113.363 36.548 Z" style="fill: rgb(102, 156, 210);filter: url(&quot;#drop-shadow-filter-blue&quot;);"/>
  <path style="fill: none; stroke-linejoin: round; stroke-width: 5; stroke: rgb(102, 156, 210); transform-origin: 406.222px 33.274px;" d="M 370 57 L 370 20 L 387 2.5 L 443.172 2.5" transform="matrix(0.999973893166, 0.007145999465, -0.007145999465, 0.999973893166, -0.000024218659, -0.000002033098)"/>
  <path d="M 113.078 102.9 C 96.51 102.9 83.078 116.332 83.078 132.9 C 83.078 149.468 96.51 162.9 113.078 162.9 C 129.646 162.9 143.078 149.468 143.078 132.9 C 143.078 116.332 129.646 102.9 113.078 102.9 M 118.078 152.65 L 108.078 152.65 L 108.078 128.65 L 118.078 128.65 L 118.078 152.65 M 113.078 123.15 C 109.229 123.15 106.823 118.984 108.747 115.65 C 109.641 114.103 111.291 113.15 113.078 113.15 C 116.927 113.15 119.332 117.317 117.408 120.65 C 116.515 122.197 114.864 123.15 113.078 123.15" fill="white" style="paint-order: fill;"/>
  <g style="fill: white;" transform="matrix(1, 0, 0, 1, 271.88623046875, 80.94645690917969)">
    <g>
      <path d="M80,71.2V74c0,3.3-2.7,6-6,6H26c-3.3,0-6-2.7-6-6v-2.8c0-7.3,8.5-11.7,16.5-15.2c0.3-0.1,0.5-0.2,0.8-0.4 c0.6-0.3,1.3-0.3,1.9,0.1C42.4,57.8,46.1,59,50,59c3.9,0,7.6-1.2,10.8-3.2c0.6-0.4,1.3-0.4,1.9-0.1c0.3,0.1,0.5,0.2,0.8,0.4 C71.5,59.5,80,63.9,80,71.2z"/>
    </g>
    <g>
      <ellipse cx="50" cy="36.5" rx="14.9" ry="16.5"/>
    </g>
  </g>
  <path style="fill: none; stroke: rgb(255, 215, 0); stroke-width: 5;" d="M 310.438 309.784 L 340.652 309.784 L 352.91 336.251 L 443.701 334.875"/>
  <path style="fill: none; stroke: rgb(102, 156, 210); stroke-width: 5;" d="M 65 215 L 25 215 L 2.5 240 L 2.5 490"/>
</svg>